<svg xmlns="http://www.w3.org/2000/svg" viewBox="0 -0.5 64 64"
  shape-rendering="crispEdges">
  <path stroke="#000000"
    d="M0 0h33M34 0h30M0 1h32M34 1h30M0 2h32M34 2h30M0 3h32M35 3h29M0 4h32M36 4h28M0 5h8M10 5h22M36 5h28M0 6h7M11 6h14M27 6h5M36 6h28M0 7h6M9 7h1M11 7h13M28 7h3M36 7h28M0 8h6M9 8h1M12 8h12M28 8h2M35 8h29M0 9h6M8 9h10M19 9h5M28 9h1M34 9h5M40 9h24M0 10h6M8 10h10M21 10h3M33 10h3M41 10h23M0 11h6M8 11h10M32 11h4M41 11h23M0 12h6M8 12h11M32 12h2M38 12h26M0 13h6M9 13h10M31 13h3M37 13h27M0 14h6M9 14h10M31 14h3M36 14h11M51 14h13M0 15h7M9 15h6M16 15h3M32 15h2M37 15h7M55 15h9M0 16h7M10 16h3M17 16h3M33 16h2M38 16h6M48 16h1M56 16h8M0 17h7M10 17h3M17 17h1M34 17h2M38 17h5M46 17h7M56 17h8M0 18h8M11 18h1M17 18h2M35 18h1M38 18h5M45 18h8M56 18h8M0 19h8M18 19h1M38 19h15M56 19h8M0 20h10M18 20h1M38 20h16M56 20h8M0 21h5M18 21h1M38 21h16M56 21h8M0 22h4M18 22h1M38 22h16M56 22h8M0 23h3M7 23h1M19 23h1M38 23h15M56 23h8M0 24h3M6 24h2M19 24h3M39 24h12M55 24h9M0 25h3M6 25h2M19 25h3M39 25h11M54 25h10M0 26h3M6 26h1M19 26h3M39 26h11M53 26h11M0 27h3M19 27h3M39 27h11M53 27h11M0 28h3M20 28h2M39 28h10M53 28h11M0 29h1M2 29h1M20 29h1M38 29h11M53 29h11M0 30h1M2 30h1M38 30h11M53 30h11M0 31h1M2 31h1M16 31h2M44 31h5M54 31h10M2 32h2M16 32h4M45 32h5M56 32h8M3 33h2M8 33h11M36 33h2M42 33h1M46 33h6M57 33h7M4 34h1M9 34h10M35 34h1M43 34h1M47 34h6M59 34h5M1 35h1M4 35h2M10 35h9M34 35h1M43 35h2M47 35h1M51 35h2M59 35h5M0 36h1M14 36h4M33 36h2M38 36h2M51 36h4M59 36h5M0 37h1M16 37h4M23 37h1M32 37h2M38 37h2M51 37h5M60 37h4M18 38h2M32 38h2M37 38h1M49 38h1M51 38h6M60 38h4M18 39h3M28 39h1M32 39h2M48 39h1M52 39h5M60 39h4M15 40h1M18 40h4M32 40h2M53 40h4M60 40h4M0 41h2M18 41h5M32 41h2M54 41h3M61 41h3M0 42h2M55 42h2M62 42h2M0 43h3M56 43h1M63 43h1M0 44h3M44 44h1M0 45h3M0 46h4M2 47h2" />
  <path stroke="#195f4d"
    d="M33 0h1M33 1h1M33 2h1M34 3h1M35 4h1M35 5h1M35 6h1M34 7h2M33 8h2M32 9h2M32 10h1M31 11h1M30 12h2M30 13h1M32 24h1M30 25h3M29 26h2M28 27h2M27 28h2M25 29h2M24 30h2M23 31h2M22 32h2M21 33h2M38 33h4M21 34h1M36 34h1M41 34h2M20 35h2M35 35h1M42 35h1M20 36h1M42 36h1M20 37h1M30 37h2M34 37h1M43 37h1M20 38h2M31 38h1M34 38h1M43 38h1M21 39h2M31 39h1M34 39h1M43 39h1M22 40h2M31 40h1M34 40h1M43 40h1M23 41h1M31 41h1M43 41h1M26 42h2M30 42h2M43 42h1M26 43h1M30 43h1M42 43h1M26 44h2M29 44h2M41 44h1M27 45h1M39 45h2M27 46h1M39 46h1M57 46h1M27 47h2M57 47h1M28 48h3M57 48h1M29 49h2M57 49h1M27 50h2M30 50h3M57 50h1M28 51h2M32 51h2M57 51h1M29 52h1M33 52h2M12 53h1M14 53h1M16 53h1M34 53h2M35 54h4M37 55h3M41 55h1M45 56h2M50 56h6M50 57h1" />
  <path stroke="#3a917c"
    d="M32 1h1M32 2h1M32 3h1M32 4h1M32 5h2M32 6h1M31 7h2M30 8h1M29 9h2M28 10h2M20 20h1M20 21h2M1 29h1M1 30h1M37 31h6M44 32h1M1 33h1M44 33h2M1 34h2M45 34h2M0 35h1M2 35h2M38 35h2M46 35h1M37 36h1M40 36h2M46 36h1M36 37h2M41 37h1M46 37h2M36 38h1M41 38h1M47 38h1M0 39h1M36 39h1M41 39h1M47 39h1M0 40h3M41 40h1M47 40h1M2 41h2M11 41h5M41 41h1M15 42h2M41 42h1M16 43h1M40 43h2M17 44h1M40 44h1M17 45h1M16 46h2M16 47h1M16 48h1M41 48h3M52 48h1M14 49h2M43 49h1M14 50h1M14 51h1M14 52h2M15 53h1M52 55h1" />
  <path stroke="#92e6d2"
    d="M33 3h1M33 4h2M9 5h1M34 5h1M9 6h2M33 6h2M6 7h1M10 7h1M33 7h1M6 8h1M10 8h2M31 8h2M6 9h1M31 9h1M6 10h1M30 10h2M6 11h1M29 11h2M6 12h1M29 12h1M6 13h1M29 13h1M6 14h2M7 15h1M7 16h1M7 17h2M8 18h1M8 19h3M19 19h1M10 20h1M19 20h1M5 21h1M19 21h1M5 22h1M19 22h2M4 23h1M13 23h1M20 23h2M3 24h2M11 24h1M13 24h1M3 25h2M11 25h2M3 26h1M12 26h1M3 27h1M12 27h1M3 28h1M17 29h2M17 30h2M18 31h3M37 32h6M7 33h1M43 33h1M7 34h2M44 34h1M8 35h1M45 35h1M45 36h1M29 37h1M45 37h1M14 38h1M29 38h2M45 38h2M14 39h2M30 39h1M46 39h1M30 40h1M46 40h1M16 41h1M29 41h2M46 41h1M29 42h1M28 43h2M28 44h1M47 45h2M52 45h3M18 46h1M47 46h1M18 47h2M19 48h2M20 49h1M21 50h2M24 51h3M26 52h3M27 53h1M27 54h1" />
  <path stroke="#63b9a5"
    d="M8 5h1M7 6h2M7 7h2M7 8h2M7 9h1M7 10h1M7 11h1M7 12h1M7 13h2M8 14h1M8 15h1M8 16h2M9 17h1M9 18h2M11 19h1M7 22h3M6 23h1M9 23h3M4 26h1M4 27h1M18 27h1M12 28h1M18 28h2M12 29h1M19 29h1M12 30h1M19 30h2M5 34h1M6 35h1M13 36h1M14 37h2M28 37h1M16 38h2M28 38h1M17 39h1M29 39h1M17 40h1M28 40h2M28 41h1M50 41h2M28 42h1M50 42h2M17 43h2M27 43h1M52 43h1M18 44h1M53 44h2M18 45h2M28 45h1M50 45h1M28 46h2M50 46h2M56 46h1M21 47h1M29 47h2M50 47h1M56 47h1M22 48h1M31 48h2M50 48h1M56 48h1M24 49h2M31 49h3M50 49h1M56 49h1M25 50h2M33 50h2M45 50h1M50 50h1M27 51h1M34 51h2M46 51h2M50 51h6M35 52h3M49 52h1M54 52h1M28 53h2M36 53h3M49 53h1M39 54h1M40 55h1M40 56h2M44 56h1M48 56h1M41 57h2" />
  <path stroke="#ebebeb"
    d="M25 6h2M24 7h3M24 8h3M18 9h1M24 9h3M18 10h1M24 10h3M18 11h2M19 12h1M19 13h1M19 14h1M19 15h2M16 16h1M20 16h1M16 17h1M20 17h2M16 18h1M21 18h1M16 19h2M21 19h2M16 20h2M21 20h2M16 21h2M22 21h1M16 22h2M22 22h1M16 23h3M22 23h2M16 24h3M22 24h2M16 25h3M22 25h2M16 26h3M22 26h2M16 27h2M22 27h2M16 28h2M22 28h1M16 29h1M21 29h2M15 30h2M21 30h2M15 31h1M21 31h2M12 32h4M20 32h2M19 33h2M19 34h2M19 35h1M48 35h3M1 36h1M18 36h2M43 36h2M48 36h3M1 37h1M24 37h3M40 37h1M44 37h1M24 38h3M24 39h3M24 40h3M24 41h3M3 43h1M3 44h1M3 45h1M4 46h1M4 47h2M5 48h3M7 49h3M9 50h3" />
  <path stroke="#e4ffff" d="M27 7h1" />
  <path stroke="#f4faf4"
    d="M27 8h1M27 9h1M27 10h1M27 11h2M27 12h2M27 13h2M27 14h4M15 15h1M29 15h3M14 16h2M30 16h3M14 17h2M31 17h3M14 18h2M32 18h3M14 19h2M32 19h4M14 20h2M32 20h4M14 21h2M32 21h2M14 22h2M32 22h1M37 22h1M14 23h2M32 23h1M36 23h2M14 24h2M35 24h4M14 25h2M34 25h5M14 26h2M33 26h6M14 27h2M34 27h5M14 28h2M34 28h5M14 29h2M33 29h5M13 30h2M33 30h5M10 31h5M32 31h5M9 32h3M32 32h5M30 33h6M28 34h7M24 35h10M2 36h2M24 36h9M2 37h2M27 37h1M48 37h3M2 38h2M27 38h1M44 38h1M48 38h1M3 39h2M27 39h1M44 39h2M4 40h1M27 40h1M44 40h2M27 41h1M44 41h2M2 42h1M44 42h2M4 43h2M4 44h2M42 44h2M4 45h3M41 45h3M5 46h4M40 46h3M6 47h4M39 47h3M8 48h4M27 48h1M33 48h8M10 49h3M16 49h4M26 49h3M34 49h6M12 50h1M15 50h6M29 50h1M35 50h3" />
  <path stroke="#116150"
    d="M39 9h1M36 10h4M36 11h2M34 12h2M34 13h1M34 14h1M34 15h2M48 15h2M35 16h2M46 16h2M49 16h2M55 16h1M36 17h1M45 17h1M36 18h1M43 18h2M36 19h1M36 20h1M6 21h5M34 21h3M4 22h1M6 22h1M10 22h3M33 22h3M54 22h1M3 23h1M5 23h1M8 23h1M12 23h1M33 23h1M53 23h1M5 24h1M9 24h2M12 24h1M51 24h2M5 25h1M13 25h1M50 25h2M5 26h1M13 26h1M50 26h1M5 27h1M13 27h1M50 27h1M4 28h2M13 28h1M49 28h2M3 29h1M13 29h1M49 29h1M49 30h1M1 31h1M49 31h2M0 32h2M50 32h2M0 33h1M2 33h1M5 33h2M52 33h1M0 34h1M3 34h1M6 34h1M53 34h1M7 35h1M9 35h1M53 35h3M55 36h2M13 37h1M56 37h2M0 38h2M13 38h1M15 38h1M50 38h1M57 38h1M1 39h2M16 39h1M57 39h1M3 40h1M7 40h5M16 40h1M57 40h1M4 41h4M10 41h1M17 41h1M53 41h1M57 41h1M17 42h1M57 42h1M15 43h1M57 43h3M15 44h2M58 44h3M15 45h2M59 45h2M15 46h1M19 46h1M44 46h1M15 47h1M20 47h1M44 47h2M13 48h3M21 48h1M44 48h2M13 49h1M21 49h3M44 49h1M13 50h1M23 50h2M44 50h1M13 51h1M13 52h1M13 53h1M25 53h2M26 54h1M28 54h2M44 55h1M49 56h1" />
  <path stroke="#fbfffb"
    d="M19 10h2M25 11h2M26 12h1M20 14h1M13 16h1M21 16h1M13 17h1M25 17h1M12 18h2M8 24h1M8 25h1M7 26h1M6 27h2M6 28h1M4 29h2M3 30h2M3 31h3M9 31h1M4 32h5M4 36h9M23 36h1M10 38h1M7 39h4M37 39h1M34 41h2M13 42h1M19 42h1M8 43h1M11 43h3M19 43h1M43 43h2M8 44h1M10 44h5M20 44h2M23 44h3M8 45h3M12 45h3M20 45h1M22 45h5M29 45h3M11 46h4M21 46h6M30 46h2M33 46h1M11 47h1M13 47h2M17 47h1M22 47h3M12 48h1M18 48h1" />
  <path stroke="#60baa3"
    d="M40 10h1M38 11h3M36 12h2M35 13h2M35 14h1M36 15h1M37 16h1M37 17h1M37 18h1M37 19h1M37 20h1M37 21h1M36 22h1M34 23h2M33 24h2M33 25h1M31 26h2M30 27h2M29 28h1M27 29h2M26 30h2M25 31h2M24 32h2M23 33h2M23 34h1M23 35h1M21 36h2M21 37h2M22 38h2M23 39h1M49 42h1M50 43h1M48 44h2M51 44h1" />
  <path stroke="#fafffa" d="M20 11h1M9 30h1M37 40h1" />
  <path stroke="#fdfeff" d="M21 11h1" />
  <path stroke="#fdfffc" d="M22 11h1" />
  <path stroke="#f5feff" d="M23 11h1" />
  <path stroke="#fffeff"
    d="M24 11h1M24 13h1M25 14h1M26 16h1M26 17h1M23 18h1M26 18h2M23 19h1M29 19h1M13 20h1M26 20h1M13 21h1M24 21h1M13 22h1M26 25h1M26 26h1M11 27h1M7 28h1M11 28h1M11 29h1M8 31h1M26 33h1M26 34h1M5 38h5M11 38h1M38 39h1M39 40h1M6 43h1M31 43h1M35 44h1M21 45h1M9 46h1M20 46h1M25 47h1M35 47h1" />
  <path stroke="#fafeff" d="M20 12h1M21 15h1M18 42h1M35 43h1" />
  <path stroke="#fffffd"
    d="M21 12h1M23 12h1M23 15h1M22 16h1M30 18h2M26 21h1M8 28h1M8 29h1M7 30h1M4 38h1M5 40h2M37 41h1M10 46h1M26 47h1M34 47h1M23 48h4" />
  <path stroke="#fffcf9" d="M22 12h1M12 38h1" />
  <path stroke="#f8fdfe" d="M24 12h1" />
  <path stroke="#fffcfc" d="M25 12h1" />
  <path stroke="#fffbff" d="M20 13h1M24 27h1M25 42h1" />
  <path stroke="#fefffa" d="M21 13h1" />
  <path stroke="#fffffb"
    d="M22 13h1M28 15h1M23 17h1M25 18h1M26 22h1M25 23h1M10 25h1M7 31h1M25 34h1M4 37h1M7 43h1M6 44h1" />
  <path stroke="#f8ffff" d="M23 13h1M24 19h1" />
  <path stroke="#ffffff"
    d="M25 13h2M24 14h1M29 16h1M13 19h1M26 19h1M24 20h1M27 20h5M27 21h5M25 22h1M27 22h5M27 23h5M26 24h6M9 25h1M24 25h1M27 25h3M27 26h2M27 27h1M32 27h2M30 28h4M29 29h4M10 30h1M28 30h5M27 31h5M27 32h5M27 33h3M5 37h7M5 39h2M11 39h1M48 42h1M52 42h1M21 43h1M49 43h1M51 43h1M9 44h1M19 44h1M36 44h1M50 44h1M7 45h1M11 45h1M32 45h1M37 45h1M49 45h1M51 45h1M36 46h3M48 46h1M52 46h1M10 47h1M32 47h1M36 47h1M17 48h1" />
  <path stroke="#fbffff"
    d="M21 14h1M23 14h1M25 16h1M27 16h1M11 26h1M25 26h1M6 30h1M6 31h1M38 38h1M39 39h1M32 43h1M39 43h1M32 44h1M38 44h1" />
  <path stroke="#fdfcf8" d="M22 14h1M39 38h1" />
  <path stroke="#fefffb"
    d="M26 14h1M26 15h1M22 18h1M12 21h1M23 21h1M25 24h1M25 25h1M24 26h1M20 43h1M35 45h1" />
  <path stroke="#61b9a5"
    d="M47 14h1M44 15h1M52 15h3M54 16h1M55 17h1M55 18h1M55 19h1M55 20h1M55 21h1M55 22h1M54 23h2M53 24h2M52 25h2M51 26h2M50 30h2M51 31h1M52 32h1M53 33h2M54 34h2M56 35h1M57 36h2M58 37h2M59 38h1M58 39h2M58 40h1M58 41h1M53 42h1M58 42h3M53 43h1M60 43h1M52 44h1M61 44h1M61 45h1M48 51h2M51 52h1M51 53h1" />
  <path stroke="#97e4d2"
    d="M48 14h3M45 15h3M50 15h2M44 16h2M51 16h3M43 17h2M53 17h2M53 18h2M53 19h2M54 20h1M54 21h1M51 27h2M51 28h2M50 29h3M52 30h1M52 31h2M53 32h3M55 33h2M56 34h3M57 35h2M58 38h1M50 39h1M59 40h1M59 41h2M61 42h1M61 43h2M62 44h1M54 55h3M56 56h2" />
  <path stroke="#fffefd" d="M22 15h1M24 22h1M6 29h1M35 42h1M31 44h1M34 44h1" />
  <path stroke="#feffff"
    d="M24 15h1M27 17h1M24 18h1M29 18h1M12 19h1M27 19h1M31 19h1M25 20h1M25 21h1M23 22h1M9 28h2M39 41h1M37 42h2M9 43h2M14 43h1M36 43h1M37 44h1M39 44h1M34 46h2" />
  <path stroke="#fffdff"
    d="M25 15h1M24 16h1M24 17h1M28 18h1M28 19h1M24 23h1M24 24h1M25 28h1M23 29h1M26 32h1M27 34h1M40 39h1M40 41h1M34 42h1M23 43h2M33 44h1M38 45h1M12 47h1M33 47h1" />
  <path stroke="#fefdff" d="M27 15h1" />
  <path stroke="#fffffa" d="M23 16h1M40 42h1M37 43h2" />
  <path stroke="#fbfffa" d="M28 16h1M30 19h1M26 28h1" />
  <path stroke="#39947e"
    d="M18 17h2M19 18h2M20 19h1M21 22h1M43 31h1M43 32h1M22 34h1M22 35h1M47 36h1M8 41h2M3 42h10M14 42h1M51 50h1M54 50h1" />
  <path stroke="#fefffd"
    d="M22 17h1M29 17h1M26 23h1M8 30h1M39 42h1M33 43h1M22 44h1M34 45h1M36 45h1M31 47h1M37 47h2" />
  <path stroke="#faffff"
    d="M28 17h1M8 26h1M23 30h1M24 34h1M38 40h1M38 41h1M34 43h1" />
  <path stroke="#fffcff" d="M30 17h1M20 42h1" />
  <path stroke="#fffefb" d="M25 19h1M26 27h1M9 29h2M24 29h1M22 43h1" />
  <path stroke="#f0faff" d="M11 20h1" />
  <path stroke="#fefff7" d="M12 20h1M5 30h1" />
  <path stroke="#fefff3" d="M23 20h1" />
  <path stroke="#f6ffff" d="M11 21h1M9 27h1M40 38h1M13 39h1" />
  <path stroke="#fcfefb" d="M9 26h1" />
  <path stroke="#fffdfc" d="M10 26h1M40 40h1" />
  <path stroke="#fffdf7" d="M8 27h1" />
  <path stroke="#fbfffd" d="M10 27h1M25 27h1M25 33h1" />
  <path stroke="#f6fffd" d="M23 28h1" />
  <path stroke="#fffdfb" d="M24 28h1M36 41h1" />
  <path stroke="#fffaff" d="M7 29h1" />
  <path stroke="#fafffd" d="M11 30h1M32 46h1" />
  <path stroke="#60b8a4"
    d="M37 34h4M36 35h2M40 35h2M35 36h2M35 37h1M42 37h1M35 38h1M42 38h1M35 39h1M42 39h1M35 40h1M42 40h1M42 41h1M42 42h1M40 49h3M42 50h2M46 52h1" />
  <path stroke="#f8feff" d="M12 37h1" />
  <path stroke="#f9ffff" d="M12 39h1" />
  <path stroke="#1f5f4e" d="M49 39h1" />
  <path stroke="#156352" d="M51 39h1M46 55h1" />
  <path stroke="#fffdfe" d="M12 40h1" />
  <path stroke="#fbfcf5" d="M13 40h1" />
  <path stroke="#ebffff" d="M14 40h1" />
  <path stroke="#f4ffff" d="M36 40h1" />
  <path stroke="#11614e"
    d="M48 40h1M55 47h1M55 48h1M52 50h1M48 52h1M50 52h1M48 53h1M50 53h1M49 55h1M43 56h1M47 56h1M46 57h1" />
  <path stroke="#95e4cf" d="M49 40h1" />
  <path stroke="#65bba7" d="M50 40h1" />
  <path stroke="#94e5d2"
    d="M51 40h1M53 46h1M55 46h1M48 47h2M51 47h2M51 48h1M53 52h1M53 53h1M40 54h1" />
  <path stroke="#0e5f4e" d="M52 40h1" />
  <path stroke="#0d634e" d="M47 41h1" />
  <path stroke="#5dbba3" d="M48 41h1" />
  <path stroke="#5cbca6" d="M49 41h1M49 46h1" />
  <path stroke="#67b7a2" d="M52 41h1" />
  <path stroke="#fefeff" d="M21 42h1M32 42h1" />
  <path stroke="#f1ffff" d="M22 42h1" />
  <path stroke="#f3ffff" d="M23 42h1" />
  <path stroke="#fffff4" d="M24 42h1" />
  <path stroke="#f5ffff" d="M33 42h1" />
  <path stroke="#fdfcfa" d="M36 42h1" />
  <path stroke="#215d4d" d="M46 42h1" />
  <path stroke="#65b8a5" d="M47 42h1M47 44h1M43 57h1" />
  <path stroke="#18604e" d="M54 42h1M52 52h1M52 53h1M50 54h1M53 55h1" />
  <path stroke="#fefff8" d="M25 43h1" />
  <path stroke="#1f5a4a" d="M45 43h1" />
  <path stroke="#69b29f" d="M46 43h1" />
  <path stroke="#63b7a4" d="M47 43h1" />
  <path stroke="#5dbaa5" d="M48 43h1" />
  <path stroke="#6ab7a3" d="M54 43h1" />
  <path stroke="#245e4e" d="M55 43h1" />
  <path stroke="#fefdfb" d="M7 44h1" />
  <path stroke="#70b19e" d="M45 44h1" />
  <path stroke="#66b9a6" d="M46 44h1M55 45h1" />
  <path stroke="#70b8a5" d="M55 44h1" />
  <path stroke="#285d4e" d="M56 44h1" />
  <path stroke="#237fde" d="M57 44h1M58 45h1M59 47h1" />
  <path stroke="#176ee2"
    d="M63 44h1M62 45h2M58 46h6M0 47h2M0 48h4M3 49h1M60 49h4M0 50h9M38 50h4M58 50h6M0 51h12M39 51h5M58 51h6M0 52h5M12 52h1M17 52h4M42 52h3M56 52h5M0 53h3M10 53h2M17 53h4M44 53h2M54 53h6M0 54h6M12 54h1M14 54h5M23 54h3M30 54h3M43 54h5M54 54h7M2 55h4M14 55h3M22 55h11M35 55h2M42 55h2M57 55h7M2 56h3M25 56h4M35 56h3M58 56h1M34 57h6M47 57h3M51 57h6M8 58h5M37 58h20M7 59h9M43 59h3M50 59h5M4 60h13M4 61h15M59 61h3M3 62h16M27 62h8M55 62h9M0 63h12M13 63h3M25 63h11M48 63h8M58 63h6" />
  <path stroke="#fffdfd" d="M33 45h1" />
  <path stroke="#225e4e" d="M44 45h1" />
  <path stroke="#69bca9" d="M45 45h1" />
  <path stroke="#8ddfcc" d="M46 45h1" />
  <path stroke="#6db5a2" d="M56 45h1" />
  <path stroke="#265b4c" d="M57 45h1" />
  <path stroke="#2d7de7"
    d="M43 46h1M42 47h2M58 47h1M60 47h4M4 48h1M58 48h6M0 49h1M4 49h3M58 49h2M12 51h1M15 51h9M38 51h1M44 51h1M5 52h7M23 52h3M30 52h3M38 52h4M61 52h3M4 53h6M30 53h4M39 53h1M42 53h2M60 53h4M6 54h6M13 54h1M33 54h2M61 54h3M0 55h2M6 55h8M17 55h5M33 55h2M0 56h1M5 56h11M17 56h3M24 56h1M29 56h6M38 56h1M59 56h5M0 57h1M2 57h20M23 57h11M57 57h7M0 58h1M2 58h4M7 58h1M13 58h24M57 58h7M0 59h4M6 59h1M16 59h27M46 59h4M55 59h9M0 60h4M29 60h4M35 60h29M1 61h3M47 61h12M62 61h2M0 62h3M24 62h3M35 62h20M12 63h1M16 63h8M44 63h4M56 63h2" />
  <path stroke="#0f6451" d="M45 46h1" />
  <path stroke="#37927c" d="M46 46h1M53 47h1M48 48h1M56 51h1M48 54h1M48 55h1" />
  <path stroke="#3a917e" d="M54 46h1" />
  <path stroke="#e53b44" d="M46 47h1M54 47h1M46 48h2M53 48h2M47 49h2M52 49h2" />
  <path stroke="#38907b" d="M47 47h1M49 50h1" />
  <path stroke="#93e4d1" d="M49 48h1M47 52h1" />
  <path stroke="#1e81e0"
    d="M1 49h2M3 53h1M21 53h4M19 54h4M16 56h1M20 56h4M22 57h1M6 58h1M5 59h1M17 60h12M33 60h2M19 61h28M19 62h5M24 63h1M43 63h1" />
  <path stroke="#42927e" d="M45 49h1" />
  <path stroke="#205c4c" d="M46 49h1" />
  <path stroke="#378f7a" d="M49 49h1" />
  <path stroke="#38937d" d="M51 49h1M55 49h1M46 50h1" />
  <path stroke="#0b614d" d="M54 49h1M47 50h1" />
  <path stroke="#1a604e" d="M48 50h1M53 50h1M39 56h1M42 56h1M40 57h1" />
  <path stroke="#64baa6" d="M55 50h1" />
  <path stroke="#63b9a3" d="M56 50h1M45 51h1" />
  <path stroke="#2480e0" d="M30 51h2" />
  <path stroke="#2080e2" d="M36 51h1M1 58h1" />
  <path stroke="#1b81e0" d="M37 51h1M21 52h2" />
  <path stroke="#1e81dd" d="M16 52h1" />
  <path stroke="#3d917c" d="M45 52h1" />
  <path stroke="#34937c" d="M55 52h1" />
  <path stroke="#13634f" d="M40 53h1" />
  <path stroke="#175f4d" d="M41 53h1" />
  <path stroke="#369179" d="M46 53h1" />
  <path stroke="#96e7d4" d="M47 53h1" />
  <path stroke="#94e8d4" d="M41 54h1" />
  <path stroke="#1b6250" d="M42 54h1" />
  <path stroke="#93e7d3" d="M49 54h1" />
  <path stroke="#95e6d3" d="M51 54h1" />
  <path stroke="#37957e" d="M52 54h1" />
  <path stroke="#36917b" d="M53 54h1" />
  <path stroke="#40947f" d="M45 55h1" />
  <path stroke="#145d4b" d="M47 55h1" />
  <path stroke="#3a8e79" d="M50 55h1" />
  <path stroke="#21604f" d="M51 55h1" />
  <path stroke="#1e81df" d="M1 56h1" />
  <path stroke="#1b81e2" d="M1 57h1" />
  <path stroke="#458f7c" d="M44 57h1" />
  <path stroke="#6fb4a2" d="M45 57h1" />
  <path stroke="#1881e4" d="M4 59h1" />
  <path stroke="#257fe4" d="M0 61h1" />
  <path stroke="#2080e4" d="M36 63h1" />
  <path stroke="#2080e6" d="M37 63h1" />
  <path stroke="#2480e2" d="M38 63h2" />
  <path stroke="#267ee9" d="M40 63h1" />
  <path stroke="#2e7cee" d="M41 63h1" />
  <path stroke="#1a82df" d="M42 63h1" />
<rect width="1" height="2" x="42" y="2.5" style="fill:rgb(235,235,235);"/><rect width="1" height="2" x="61" y="2.5" style="fill:rgb(235,235,235);"/><rect width="18" height="1" x="43" y="1.5" style="fill:rgb(235,235,235);" /><rect width="18" height="1" x="43" y="2.5" style="fill:rgb(106,198,177);" /><rect width="18" height="1" x="43" y="3.5" style="fill:rgb(97,185,165);" /><rect width="18" height="1" x="43" y="4.5" style="fill:rgb(235,235,235);" /><rect width="9" height="1" x="43" y="2.5" style="fill:rgb(229,59,68);"/><rect width="9" height="1" x="43" y="3.5" style="fill:rgb(158,40,53);"/></svg>